<mxfile host="app.diagrams.net" modified="2023-09-17T16:31:46.324Z" agent="Mozilla/5.0 (Windows NT 10.0; Win64; x64) AppleWebKit/537.36 (KHTML, like Gecko) Chrome/109.0.0.0 Safari/537.36" version="21.7.5" etag="d9Xs-CmpCMHM0P0dqEjT" type="github">
  <diagram name="Page-1" id="typC2VtrktIg2ykBEVtM">
    <mxGraphModel>
      <root>
        <mxCell id="0" />
        <mxCell id="1" parent="0" />
      </root>
    </mxGraphModel>
  </diagram>
</mxfile>
